<svg xmlns="http://www.w3.org/2000/svg" width="1000" height="1000" viewBox="0 0 1000 1000" role="img" aria-label="Lunapot Yalnız amblem — Beyaz zemin / antrasit logo"><title>Lunapot · Yalnız amblem · Beyaz zemin / antrasit logo</title><rect data-background="true" width="100%" height="100%" fill="#FFFFFF"/><g data-frame-fit="true" transform="translate(166.66666666666669 166.66666666666669) scale(6.666666666666666)"><title>Lunapot — amblem</title><g fill="#20251F"><g data-part="emblem" transform="translate(0 0) scale(1.023993664) translate(0 -2.828427124746189)"><path d="M0.585786438 31.414213562L28.585786438 3.414213562A2 2 0 0 1 32 4.828427125L32 59.171572875A2 2 0 0 1 31.414213562 60.585786438L3.414213562 88.585786438A2 2 0 0 1 0 87.171572875L0 32.828427125A2 2 0 0 1 0.585786438 31.414213562Z"/><path d="M88.539983926 14.558423378L76.621507206 43.332171519A2 2 0 0 1 75.539115005 44.414563719L46.765366865 56.333040439A2 2 0 0 1 44.152240935 53.71991451L56.070717655 24.946166369A2 2 0 0 1 57.153109855 23.863774169L85.926857996 11.945297449A2 2 0 0 1 88.539983926 14.558423378Z"/><path d="M41.313708499 68.485281374L95.656854249 68.485281374A2 2 0 0 1 97.071067812 71.899494937L69.071067812 99.899494937A2 2 0 0 1 67.656854249 100.485281374L13.313708499 100.485281374A2 2 0 0 1 11.899494937 97.071067812L39.899494937 69.071067812A2 2 0 0 1 41.313708499 68.485281374Z"/></g></g></g></svg>